<svg width="128" height="128" viewBox="0 0 153 153" stroke="currentColor" fill="currentColor" xmlns="http://www.w3.org/2000/svg" style="color: #1E57C9;">
    <path d="M45.5 122C45.5 130.56 38.5604 137.5 30 137.5C21.4396 137.5 14.5 130.56 14.5 122C14.5 113.44 21.4396 106.5 30 106.5C38.5604 106.5 45.5 113.44 45.5 122Z"/>
    <path d="M30.5 122C30.5 121.724 30.2761 121.5 30 121.5C29.7239 121.5 29.5 121.724 29.5 122C29.5 122.276 29.7239 122.5 30 122.5V137.5C21.4396 137.5 14.5 130.56 14.5 122C14.5 113.44 21.4396 106.5 30 106.5C38.5604 106.5 45.5 113.44 45.5 122C45.5 130.56 38.5604 137.5 30 137.5V122.5C30.2761 122.5 30.5 122.276 30.5 122Z"/>
    <path d="M22.5547 111.277C22.5547 115.419 25.9126 118.777 30.0547 118.777C34.1968 118.777 37.5547 115.419 37.5547 111.277L37.5547 100.5C37.5547 96.3579 34.1968 93 30.0547 93C25.9126 93 22.5547 96.3579 22.5547 100.5L22.5547 111.277Z"/>
    <path d="M37.5547 143.609C37.5547 147.751 34.1968 151.109 30.0547 151.109C25.9126 151.109 22.5547 147.751 22.5547 143.609L22.5547 132.832C22.5547 128.69 25.9126 125.332 30.0547 125.332C34.1968 125.332 37.5547 128.69 37.5547 132.832L37.5547 143.609Z"/>
    <path d="M19.2773 114.554C23.4194 114.554 26.7773 117.912 26.7773 122.054C26.7773 126.197 23.4194 129.554 19.2773 129.554H8.5C4.35786 129.554 1 126.197 1 122.054C1 117.912 4.35786 114.554 8.5 114.554H19.2773Z"/>
    <path d="M40.832 129.554C36.6899 129.554 33.332 126.197 33.332 122.054C33.332 117.912 36.6899 114.554 40.832 114.554L51.6094 114.554C55.7515 114.554 59.1094 117.912 59.1094 122.054C59.1094 126.197 55.7515 129.554 51.6094 129.554L40.832 129.554Z"/>
    <path d="M140 138.89C140 122.358 136.726 105.988 130.364 90.714C124.002 75.4403 114.677 61.5623 102.922 49.8723C91.1665 38.1824 77.2109 28.9094 61.8519 22.5828C46.4929 16.2562 30.0312 13 13.4067 13" stroke-width="25" stroke-linecap="round" fill="none"/>
    <path d="M95.6924 138.89C95.6924 128.176 93.564 117.568 89.4288 107.67C85.2936 97.7718 79.2324 88.7782 71.5915 81.2025C63.9506 73.6269 54.8795 67.6176 44.8961 63.5177C34.9128 59.4178 24.2126 57.3076 13.4067 57.3076" stroke-width="25" stroke-linecap="round" fill="none"/>
</svg>
